<svg width="730" height="730" viewBox="0 0 730 730" fill="none" xmlns="http://www.w3.org/2000/svg">
<circle cx="365" cy="365" r="355" fill="#01011B" stroke="#00FFFF" stroke-width="20"/>
<circle cx="368" cy="370" r="282.5" fill="#01011B" stroke="#00FFFF" stroke-width="15"/>
<circle cx="367.5" cy="366.5" r="235" fill="#01011B" stroke="#00FFFF" stroke-width="15"/>
<line x1="289.959" y1="570.976" x2="442.964" y2="569.732" stroke="#00FFFF" stroke-width="10"/>
<line x1="250.978" y1="551" x2="482.976" y2="549.974" stroke="#00FFFF" stroke-width="10"/>
<line x1="225.978" y1="532" x2="506.975" y2="530.757" stroke="#00FFFF" stroke-width="10"/>
<line x1="205.978" y1="513" x2="527.975" y2="511.575" stroke="#00FFFF" stroke-width="10"/>
<line x1="188.978" y1="493" x2="543.974" y2="491.429" stroke="#00FFFF" stroke-width="10"/>
<line x1="176.978" y1="474" x2="554.974" y2="472.327" stroke="#00FFFF" stroke-width="10"/>
<circle cx="368" cy="370" r="217.5" stroke="#01011B" stroke-width="15"/>
<path d="M347.966 53.5043L365.527 37.0291C369.926 32.9025 376.837 33.123 380.963 37.5215C385.09 41.9201 384.87 48.8311 380.471 52.9577L362.91 69.4329L347.966 53.5043Z" fill="#00FFFF"/>
<path d="M362.91 69.4328L346.527 51.8828C342.405 47.4672 342.643 40.546 347.058 36.424C351.474 32.3019 358.395 32.5399 362.517 36.9555L378.9 54.5055L362.91 69.4328Z" fill="#00FFFF"/>
<path d="M654.361 212.11L630.811 207.089C624.912 205.832 621.15 200.03 622.408 194.131C623.665 188.233 629.467 184.47 635.365 185.728L658.915 190.749L654.361 212.11Z" fill="#00FFFF"/>
<path d="M658.916 190.749L653.851 214.217C652.577 220.122 646.757 223.876 640.853 222.602C634.948 221.327 631.194 215.508 632.468 209.603L637.533 186.135L658.916 190.749Z" fill="#00FFFF"/>
<path d="M645.676 199.697L623.043 220.014L617.141 210.732L645.676 199.697Z" fill="#00FFFF"/>
<path d="M635.659 547.772L631.017 525.368C629.851 519.741 633.345 513.767 638.82 512.024C644.296 510.281 649.681 513.43 650.847 519.057L655.489 541.462L635.659 547.772Z" fill="#00FFFF"/>
<path d="M655.489 541.462L633.661 548.349C628.184 550.077 622.81 546.915 621.658 541.285C620.506 535.656 624.012 529.691 629.489 527.963L651.317 521.076L655.489 541.462Z" fill="#00FFFF"/>
<path d="M641.538 520.931L654.136 528.419C658.816 531.2 660.107 537.664 657.019 542.855C653.931 548.047 647.634 550.001 642.954 547.219L630.355 539.731L641.538 520.931Z" fill="#00FFFF"/>
<path d="M642.899 534.468L617.12 524.905L622.757 515.459L642.899 534.468Z" fill="#00FFFF"/>
<path d="M80.9644 524.192L104.51 529.236C110.407 530.499 114.164 536.304 112.901 542.201C111.637 548.099 105.832 551.856 99.935 550.592L76.3897 545.549L80.9644 524.192Z" fill="#00FFFF"/>
<path d="M76.3896 545.549L81.4766 522.085C82.7565 516.182 88.5798 512.434 94.4833 513.714C100.387 514.993 104.135 520.817 102.855 526.72L97.768 550.183L76.3896 545.549Z" fill="#00FFFF"/>
<path d="M89.6377 536.613L112.29 516.318L118.183 525.606L89.6377 536.613Z" fill="#00FFFF"/>
<path d="M96.1602 188.916L101.481 212.401C102.814 218.283 99.1259 224.132 93.2437 225.464C87.3615 226.797 81.5127 223.109 80.1799 217.227L74.8589 193.743L96.1602 188.916Z" fill="#00FFFF"/>
<path d="M74.8589 193.743L98.2869 188.496C104.181 187.175 110.03 190.884 111.35 196.778C112.671 202.673 108.962 208.521 103.068 209.842L79.6398 215.089L74.8589 193.743Z" fill="#00FFFF"/>
<path d="M90.1899 216.063L76.4975 207.289C71.4116 204.03 69.9305 197.265 73.1896 192.179C76.4487 187.093 83.2137 185.612 88.2997 188.871L101.992 197.645L90.1899 216.063Z" fill="#00FFFF"/>
<path d="M88.5349 202.008L116.472 214.03L110.521 223.282L88.5349 202.008Z" fill="#00FFFF"/>
<path d="M345 682.411C355.559 677.19 360.258 672.705 366.014 661C371.967 672.673 376.986 677.082 387.425 682.014C376.126 689.119 371.07 693.608 366.411 703.425C359.915 690.95 355.095 686.516 345 682.411Z" fill="#00FFFF"/>
<line x1="94.6259" y1="131.28" x2="163.64" y2="172.633" stroke="#00FFFF" stroke-width="18"/>
<line x1="305.417" y1="15.2708" x2="302.996" y2="95.6894" stroke="#00FFFF" stroke-width="18"/>
<line x1="305.417" y1="15.2708" x2="302.996" y2="95.6894" stroke="#00FFFF" stroke-width="18"/>
<line x1="429.417" y1="642.271" x2="426.996" y2="722.689" stroke="#00FFFF" stroke-width="18"/>
<line x1="306.417" y1="641.271" x2="303.996" y2="721.689" stroke="#00FFFF" stroke-width="18"/>
<line x1="638.553" y1="131.572" x2="570.865" y2="175.061" stroke="#00FFFF" stroke-width="18"/>
<line x1="101.553" y1="455.572" x2="33.8647" y2="499.061" stroke="#00FFFF" stroke-width="18"/>
<line x1="698.553" y1="238.572" x2="630.865" y2="282.061" stroke="#00FFFF" stroke-width="18"/>
<line x1="638.112" y1="603.836" x2="570.129" y2="560.809" stroke="#00FFFF" stroke-width="18"/>
<line x1="702.17" y1="498.632" x2="634.187" y2="455.605" stroke="#00FFFF" stroke-width="18"/>
<line x1="102.17" y1="280.632" x2="34.1869" y2="237.605" stroke="#00FFFF" stroke-width="18"/>
<line x1="164.553" y1="560.572" x2="96.8647" y2="604.061" stroke="#00FFFF" stroke-width="18"/>
<line x1="428.417" y1="16.2708" x2="425.996" y2="96.6894" stroke="#00FFFF" stroke-width="18"/>
<path d="M360.618 270.68C368.204 251.15 378.406 270.68 378.406 270.68C378.406 270.68 370.678 476 388.346 476C406.014 476 328.981 476 348.063 476C367.144 476 353.033 290.211 360.618 270.68Z" fill="#00FFFF"/>
<path d="M344.866 231.731C345.144 232.093 345.506 232.568 345.943 233.141C347.028 234.57 348.567 236.613 350.378 239.065C354.004 243.975 358.699 250.501 363.015 257.008C367.369 263.572 371.197 269.911 373.21 274.509C373.544 275.272 373.802 275.93 373.998 276.491C373.614 276.336 373.182 276.148 372.698 275.921C370.774 275.018 368.513 273.739 365.713 272.155L365.595 272.088C359.987 268.915 352.707 264.814 343.735 261.581C325.609 255.051 300.905 252.184 268.325 266.076C260.527 269.401 254.669 271.411 250.421 272.418C246.949 273.24 245.018 273.273 244.089 273.149C244.404 271.882 245.454 269.814 247.5 267.019C251.585 261.44 258.523 254.439 266.282 247.883C274.033 241.335 282.331 235.458 289.018 232.014C302.086 225.282 316.181 225.217 327.246 226.96C332.751 227.828 337.418 229.13 340.7 230.213C342.339 230.754 343.625 231.237 344.489 231.58C344.626 231.634 344.751 231.685 344.866 231.731ZM374.557 278.859C374.557 278.859 374.557 278.854 374.558 278.845C374.558 278.855 374.557 278.86 374.557 278.859Z" fill="#01011B" stroke="#00FFFF" stroke-width="8"/>
<path d="M329.297 255.484C329.72 255.655 330.273 255.88 330.94 256.153C332.6 256.833 334.963 257.812 337.768 259.006C343.384 261.397 350.742 264.636 357.763 268.053C364.846 271.5 371.362 275.019 375.429 277.959C376.104 278.447 376.66 278.883 377.114 279.267C376.704 279.329 376.237 279.386 375.705 279.436C373.589 279.634 370.991 279.679 367.775 279.736L367.639 279.738C361.196 279.85 352.843 280.01 343.471 281.778C324.538 285.35 301.797 295.417 280.775 323.921C275.743 330.744 271.715 335.449 268.566 338.472C265.992 340.943 264.345 341.951 263.482 342.316C263.109 341.064 262.965 338.75 263.31 335.302C263.998 328.423 266.424 318.869 269.782 309.282C273.137 299.707 277.305 290.431 281.319 284.07C289.163 271.638 301.275 264.428 311.693 260.315C316.877 258.269 321.559 257.023 324.937 256.29C326.623 255.924 327.976 255.688 328.895 255.545C329.04 255.522 329.174 255.502 329.297 255.484ZM378.798 281.024C378.797 281.024 378.795 281.02 378.791 281.011C378.796 281.02 378.798 281.024 378.798 281.024Z" fill="#01011B" stroke="#00FFFF" stroke-width="8"/>
<path d="M475.852 286.598C475.934 287.047 476.039 287.635 476.165 288.344C476.477 290.111 476.912 292.631 477.401 295.64C478.381 301.665 479.574 309.615 480.437 317.376C481.308 325.205 481.815 332.593 481.503 337.602C481.451 338.432 481.379 339.136 481.298 339.725C481.027 339.411 480.728 339.047 480.402 338.624C479.104 336.941 477.677 334.769 475.912 332.081L475.837 331.968C472.3 326.581 467.701 319.606 461.199 312.629C448.064 298.534 427.404 284.69 392.077 282.149C383.621 281.541 377.492 280.651 373.254 279.604C369.79 278.749 368.058 277.895 367.288 277.36C368.147 276.377 370.026 275.018 373.125 273.468C379.308 270.373 388.68 267.319 398.577 265.036C408.464 262.755 418.532 261.323 426.053 261.316C440.753 261.304 453.319 267.69 462.362 274.299C466.861 277.587 470.417 280.88 472.841 283.343C474.051 284.573 474.974 285.591 475.586 286.291C475.682 286.402 475.771 286.504 475.852 286.598ZM480.712 342.087C480.712 342.087 480.714 342.082 480.719 342.074C480.715 342.083 480.712 342.087 480.712 342.087Z" fill="#01011B" stroke="#00FFFF" stroke-width="8"/>
<path d="M311.467 297.07C311.891 296.904 312.448 296.687 313.12 296.427C314.794 295.781 317.184 294.87 320.042 293.811C325.766 291.691 333.339 288.992 340.789 286.653C348.304 284.293 355.457 282.376 360.433 281.719C361.258 281.61 361.962 281.545 362.555 281.512C362.3 281.838 362 282.201 361.647 282.603C360.245 284.2 358.388 286.017 356.089 288.267L355.993 288.362C351.387 292.869 345.425 298.723 339.829 306.445C328.522 322.045 318.908 344.981 323.207 380.137C324.236 388.552 324.541 394.738 324.329 399.099C324.155 402.662 323.65 404.526 323.274 405.384C322.143 404.73 320.449 403.148 318.331 400.405C314.106 394.933 309.307 386.323 305.163 377.048C301.024 367.785 297.683 358.18 296.231 350.8C293.393 336.377 297.243 322.818 301.991 312.673C304.352 307.625 306.9 303.503 308.851 300.651C309.826 299.227 310.647 298.125 311.217 297.39C311.306 297.274 311.39 297.167 311.467 297.07ZM364.986 281.633C364.986 281.633 364.981 281.631 364.972 281.627C364.982 281.631 364.986 281.632 364.986 281.633Z" fill="#01011B" stroke="#00FFFF" stroke-width="8"/>
<path d="M449.008 355.195C448.797 355.599 448.519 356.128 448.183 356.765C447.345 358.352 446.142 360.609 444.681 363.285C441.757 368.643 437.819 375.651 433.738 382.308C429.621 389.024 425.486 395.167 422.165 398.931C421.615 399.555 421.126 400.066 420.701 400.481C420.679 400.067 420.667 399.596 420.669 399.062C420.677 396.936 420.884 394.346 421.14 391.14L421.151 391.005C421.663 384.581 422.314 376.252 421.463 366.753C419.743 347.563 411.929 323.953 385.598 300.266C379.295 294.596 375.002 290.131 372.299 286.704C370.089 283.903 369.246 282.165 368.966 281.271C370.248 281.022 372.565 281.102 375.963 281.78C382.744 283.131 392.017 286.472 401.233 290.744C410.439 295.012 419.266 300.06 425.208 304.671C436.821 313.683 442.823 326.437 445.906 337.205C447.44 342.563 448.227 347.344 448.628 350.777C448.829 352.491 448.933 353.861 448.986 354.789C448.994 354.936 449.002 355.071 449.008 355.195ZM418.789 401.986C418.789 401.986 418.793 401.984 418.802 401.981C418.793 401.985 418.788 401.986 418.789 401.986Z" fill="#01011B" stroke="#00FFFF" stroke-width="8"/>
<path d="M456.43 216.923C456.781 217.214 457.239 217.597 457.791 218.061C459.165 219.215 461.117 220.868 463.424 222.86C468.043 226.85 474.062 232.179 479.707 237.574C485.402 243.017 490.534 248.355 493.511 252.396C494.004 253.066 494.401 253.651 494.717 254.155C494.308 254.089 493.845 254.001 493.323 253.886C491.247 253.43 488.759 252.68 485.68 251.753L485.55 251.714C479.379 249.856 471.375 247.461 461.911 246.287C442.79 243.916 418.063 246.568 389.349 267.303C382.476 272.266 377.205 275.519 373.284 277.438C370.08 279.006 368.203 279.463 367.27 279.548C367.297 278.243 367.865 275.994 369.245 272.816C371.998 266.474 377.222 258.115 383.344 250.009C389.459 241.913 396.257 234.35 402.02 229.516C413.281 220.068 427.015 216.895 438.191 216.156C443.752 215.788 448.592 216.029 452.032 216.361C453.749 216.527 455.11 216.715 456.029 216.858C456.174 216.881 456.308 216.903 456.43 216.923ZM495.784 256.342C495.784 256.342 495.783 256.337 495.782 256.328C495.784 256.337 495.784 256.342 495.784 256.342Z" fill="#01011B" stroke="#00FFFF" stroke-width="8"/>
</svg>
