<svg width="142" height="158" viewBox="0 0 142 158" fill="none" xmlns="http://www.w3.org/2000/svg">
<rect x="3" y="19" width="136" height="136" rx="7" stroke="#00FFFF" stroke-width="6"/>
<rect x="26" y="121" width="19.9038" height="20" rx="3" fill="#00FFFF"/>
<rect x="49.3652" y="121" width="19.9038" height="20" rx="3" fill="#00FFFF"/>
<rect x="72.731" y="121" width="19.9038" height="20" rx="3" fill="#00FFFF"/>
<rect x="96.0962" y="121" width="19.9038" height="20" rx="3" fill="#00FFFF"/>
<rect x="26" y="97" width="19.9038" height="20" rx="3" fill="#00FFFF"/>
<rect x="49.3652" y="97" width="19.9038" height="20" rx="3" fill="#00FFFF"/>
<rect x="72.731" y="97" width="19.9038" height="20" rx="3" fill="#00FFFF"/>
<rect x="96.0962" y="97" width="19.9038" height="20" rx="3" fill="#00FFFF"/>
<rect x="26" y="73" width="19.9038" height="20" rx="3" fill="#00FFFF"/>
<rect x="49.3652" y="73" width="19.9038" height="20" rx="3" fill="#00FFFF"/>
<rect x="72.731" y="73" width="19.9038" height="20" rx="3" fill="#00FFFF"/>
<rect x="96.0962" y="73" width="19.9038" height="20" rx="3" fill="#00FFFF"/>
<line x1="1" y1="62" x2="141" y2="62" stroke="#00FFFF" stroke-width="6"/>
<rect x="18" width="11.383" height="46" rx="5.69149" fill="#00FFFF"/>
<rect x="49.8726" width="11.383" height="46" rx="5.69149" fill="#00FFFF"/>
<rect x="81.7446" width="11.383" height="46" rx="5.69149" fill="#00FFFF"/>
<rect x="113.617" width="11.383" height="46" rx="5.69149" fill="#00FFFF"/>
</svg>
