<svg width="730" height="730" viewBox="0 0 730 730" fill="none" xmlns="http://www.w3.org/2000/svg">
<circle cx="365" cy="365" r="355" fill="#01011B" stroke="#00FFFF" stroke-width="20"/>
<circle cx="365" cy="365" r="215" fill="#01011B" stroke="#00FFFF" stroke-width="30"/>
<path d="M249.673 558.802L178.018 576.024L183.569 502.538L249.673 558.802Z" fill="#00FFFF" stroke="#00FFFF" stroke-width="30"/>
<path d="M266.063 253.634C275.062 244.072 289.561 243.945 298.698 253.349L462.411 421.847C473.706 433.473 472.834 453.07 460.558 463.507C435.474 484.832 399.401 482.599 376.805 458.322L265.829 339.091C243.808 315.433 243.913 277.172 266.063 253.634Z" fill="#00FFFF"/>
<path d="M279.492 234.344C284.401 227.531 294.278 228.128 298.613 235.499L320.311 272.394C323.227 277.353 322.523 283.752 318.62 287.766L295.683 311.35C290.455 316.727 281.836 315.623 277.809 309.061L258.332 277.329C255.626 272.92 255.804 267.217 258.777 263.092L279.492 234.344Z" fill="#00FFFF"/>
<path d="M437.745 384.483C437.028 379.922 465.82 398.726 485.882 412.321C495.507 418.843 496.716 433.144 488.434 441.254L478.928 450.563C477.576 451.887 476.117 453.082 474.567 454.134L467.465 458.959C451.189 470.014 429.263 463.086 420.997 444.275L418.907 439.52C411.949 423.684 417.747 405.541 430.278 394.544C434.829 390.551 438.108 386.793 437.745 384.483Z" fill="#00FFFF"/>
<path d="M313.255 362.439C304.306 352.426 302.879 337.039 309.806 325.25L332.717 286.257C342.31 269.93 363.365 267.445 375.901 281.16L463.446 376.934C475.308 389.91 473.845 411.294 460.344 422.296L425.795 450.451C414.589 459.582 398.894 458.265 389.162 447.375L313.255 362.439Z" fill="#01011B"/>
<line x1="462.489" y1="462.474" x2="450.28" y2="444.532" stroke="#00FFFF" stroke-width="9"/>
</svg>
