<svg width="256" height="248" viewBox="0 0 256 248" fill="none" xmlns="http://www.w3.org/2000/svg">
<path d="M200.561 125C200.561 165.041 168.102 197.5 128.061 197.5C88.0204 197.5 55.561 165.041 55.561 125C55.561 84.9594 88.0204 52.5 128.061 52.5C168.102 52.5 200.561 84.9594 200.561 125Z" stroke="#00FFFF" stroke-width="55"/>
<rect x="157.146" y="2.43622" width="61.4472" height="53.8544" rx="19.5" transform="rotate(92.0416 157.146 2.43622)" fill="#00FFFF" stroke="#00FFFF"/>
<rect x="253.446" y="152.06" width="61.4472" height="53.8544" rx="19.5" transform="rotate(-178.201 253.446 152.06)" fill="#00FFFF" stroke="#00FFFF"/>
<rect x="197.44" y="231.114" width="61.4472" height="53.8544" rx="19.5" transform="rotate(-135.879 197.44 231.114)" fill="#00FFFF" stroke="#00FFFF"/>
<rect x="101.411" y="246.945" width="61.4472" height="53.8544" rx="19.5" transform="rotate(-89.566 101.411 246.945)" fill="#00FFFF" stroke="#00FFFF"/>
<rect x="20.7681" y="193.321" width="61.4472" height="53.8545" rx="19.5" transform="rotate(-45.2164 20.7681 193.321)" fill="#00FFFF" stroke="#00FFFF"/>
<rect x="0.505463" y="97.8941" width="61.4472" height="53.8545" rx="19.5" transform="rotate(-0.629514 0.505463 97.8941)" fill="#00FFFF" stroke="#00FFFF"/>
<rect x="60.8482" y="17.7071" width="61.4472" height="53.8544" rx="19.5" transform="rotate(44.9988 60.8482 17.7071)" fill="#00FFFF" stroke="#00FFFF"/>
<path d="M218.503 71.762L201.376 86.2724C193.159 93.2341 180.855 92.2165 173.893 83.9995L151.686 57.7878L183.69 30.6722C191.907 23.7105 204.212 24.7281 211.174 32.9451L220.776 44.2787C227.738 52.4957 226.72 64.8004 218.503 71.762Z" fill="#00FFFF" stroke="#00FFFF"/>
</svg>
