<svg width="148" height="164" viewBox="0 0 148 164" fill="none" xmlns="http://www.w3.org/2000/svg">
<path fill-rule="evenodd" clip-rule="evenodd" d="M74 13.25C36.4446 13.25 6 43.6946 6 81.25C6 118.805 36.4446 149.25 74 149.25C111.555 149.25 142 118.805 142 81.25C142 43.6946 111.555 13.25 74 13.25ZM0 81.25C0 40.3809 33.1309 7.25 74 7.25C114.869 7.25 148 40.3809 148 81.25C148 122.119 114.869 155.25 74 155.25C33.1309 155.25 0 122.119 0 81.25Z" fill="#00FFFF"/>
<path fill-rule="evenodd" clip-rule="evenodd" d="M74.5 132.25C102.943 132.25 126 109.193 126 80.75C126 52.3073 102.943 29.25 74.5 29.25C46.0573 29.25 23 52.3073 23 80.75C23 109.193 46.0573 132.25 74.5 132.25ZM74.5 138.25C106.256 138.25 132 112.506 132 80.75C132 48.9936 106.256 23.25 74.5 23.25C42.7436 23.25 17 48.9936 17 80.75C17 112.506 42.7436 138.25 74.5 138.25Z" fill="#00FFFF"/>
<path d="M74 77.25L132.024 163.5H15.9763L74 77.25Z" fill="#01011B"/>
<path d="M74 86.25L15.9763 0L132.024 0L74 86.25Z" fill="#01011B"/>
<path d="M99 82.25C99 96.0571 87.8071 107.25 74 107.25C60.1929 107.25 49 96.0571 49 82.25C49 68.4429 60.1929 57.25 74 57.25C87.8071 57.25 99 68.4429 99 82.25Z" fill="#00FFFF"/>
</svg>
