<svg width="176" height="176" viewBox="0 0 176 176" fill="none" xmlns="http://www.w3.org/2000/svg">
<mask id="path-1-inside-1_1167_9" fill="white">
<path d="M126.612 126.312C130.32 129.992 130.378 136.047 126.193 139.173C118.651 144.805 109.926 148.729 100.625 150.617C88.2197 153.135 75.3466 151.917 63.6334 147.119C51.9202 142.32 41.893 134.156 34.8198 123.658C27.7466 113.161 23.9451 100.802 23.896 88.144C23.8468 75.4861 27.5523 63.0979 34.5438 52.5459C41.5353 41.994 51.4988 33.7522 63.1744 28.8628C74.85 23.9735 87.7132 22.6561 100.138 25.0774C109.453 26.8928 118.208 30.7487 125.793 36.3228C130.003 39.416 129.992 45.4714 126.312 49.1793V49.1793C122.633 52.8873 116.682 52.808 112.289 49.9816C107.506 46.9039 102.158 44.7435 96.5191 43.6446C87.7671 41.939 78.7059 42.867 70.4812 46.3112C62.2566 49.7554 55.238 55.5611 50.313 62.9942C45.388 70.4274 42.7777 79.154 42.8123 88.0706C42.8469 96.9872 45.5248 105.693 50.5074 113.088C55.49 120.483 62.5535 126.234 70.8046 129.614C79.0557 132.994 88.1239 133.852 96.8624 132.078C102.493 130.936 107.823 128.734 112.583 125.619C116.954 122.759 122.904 122.633 126.612 126.312V126.312Z"/>
</mask>
<path d="M126.612 126.312C130.32 129.992 130.378 136.047 126.193 139.173C118.651 144.805 109.926 148.729 100.625 150.617C88.2197 153.135 75.3466 151.917 63.6334 147.119C51.9202 142.32 41.893 134.156 34.8198 123.658C27.7466 113.161 23.9451 100.802 23.896 88.144C23.8468 75.4861 27.5523 63.0979 34.5438 52.5459C41.5353 41.994 51.4988 33.7522 63.1744 28.8628C74.85 23.9735 87.7132 22.6561 100.138 25.0774C109.453 26.8928 118.208 30.7487 125.793 36.3228C130.003 39.416 129.992 45.4714 126.312 49.1793V49.1793C122.633 52.8873 116.682 52.808 112.289 49.9816C107.506 46.9039 102.158 44.7435 96.5191 43.6446C87.7671 41.939 78.7059 42.867 70.4812 46.3112C62.2566 49.7554 55.238 55.5611 50.313 62.9942C45.388 70.4274 42.7777 79.154 42.8123 88.0706C42.8469 96.9872 45.5248 105.693 50.5074 113.088C55.49 120.483 62.5535 126.234 70.8046 129.614C79.0557 132.994 88.1239 133.852 96.8624 132.078C102.493 130.936 107.823 128.734 112.583 125.619C116.954 122.759 122.904 122.633 126.612 126.312V126.312Z" fill="#D9D9D9" stroke="#00FFFF" stroke-width="20" mask="url(#path-1-inside-1_1167_9)"/>
<rect x="145.601" y="79.5569" width="15" height="66" rx="7.5" transform="rotate(88.5694 145.601 79.5569)" fill="#00FFFF"/>
<rect x="164.794" y="87.0459" width="15" height="41.6594" rx="7.5" transform="rotate(143.189 164.794 87.0459)" fill="#00FFFF"/>
<rect x="139.552" y="120.601" width="15" height="41.6594" rx="7.5" transform="rotate(-142.688 139.552 120.601)" fill="#00FFFF"/>
</svg>
